<svg width="120" height="84" viewBox="0 0 120 84" fill="none" xmlns="http://www.w3.org/2000/svg">
<g clip-path="url(#clip0_2002_2460)">
<g filter="url(#filter0_d_2002_2460)">
<path d="M21.5433 22.301C23.3837 22.301 24.9653 22.4735 26.2881 22.8186C27.6109 23.1445 28.7037 23.7963 29.5664 24.774C30.429 25.7326 30.8604 27.1129 30.8604 28.915C30.8604 31.388 29.6814 33.5927 27.3233 35.5289C24.9845 37.446 22.3293 38.9893 19.3578 40.1587C16.3863 41.3282 13.3477 42.3442 10.242 43.2069V53.3579C10.242 55.5434 10.4529 57.2496 10.8747 58.4766C11.3156 59.6844 12.3796 60.3745 14.0666 60.547V61.0647H-0.0527911V60.547C1.63425 60.2978 2.68866 59.6364 3.11042 58.5628C3.55135 57.4893 3.77182 55.8885 3.77182 53.7605V30.0365C3.77182 28.5603 3.70472 27.3717 3.57052 26.4707C3.43632 25.5696 3.09125 24.774 2.53529 24.0839C1.97933 23.3937 1.11664 22.9815 -0.0527911 22.8473V22.301H21.5433ZM10.242 40.3888C19.5974 37.4173 24.2752 33.909 24.2752 29.8639C24.2752 28.0427 23.5467 26.787 22.0897 26.0968C20.6327 25.3875 18.5335 25.0328 15.792 25.0328C13.9899 25.0328 12.6959 25.215 11.9099 25.5792C11.1431 25.9243 10.6734 26.4515 10.5008 27.1608C10.3283 27.8701 10.242 29.0396 10.242 30.6691V40.3888ZM41.7591 26.3844V53.3579C41.7591 55.5434 41.97 57.2496 42.3917 58.4766C42.8327 59.6844 43.8966 60.3745 45.5837 60.547V61.0647H34.1099V60.547C35.7969 60.2978 36.8513 59.6364 37.2731 58.5628C37.714 57.4893 37.9345 55.8885 37.9345 53.7605V30.0365C37.9345 28.5795 37.8674 27.4004 37.7332 26.4994C37.599 25.5984 37.2539 24.8124 36.698 24.1414C36.1612 23.4512 35.2985 23.0199 34.1099 22.8473V22.301H49.0057V22.8473C48.3347 23.0007 47.9992 23.3745 47.9992 23.9688C47.9992 24.5248 48.258 25.2725 48.7757 26.2118L55.5334 38.5771L62.2624 27.6784C63.2785 26.0105 63.7865 24.8124 63.7865 24.0839C63.7865 23.4129 63.4127 23.0007 62.665 22.8473V22.301H76.8707V22.8473C75.1837 23.1157 74.1197 23.8059 73.6787 24.9178C73.257 26.0105 73.0461 27.573 73.0461 29.6051V53.3579C73.0461 55.4667 73.257 57.125 73.6787 58.3328C74.1197 59.5214 75.1837 60.2595 76.8707 60.547V61.0647H62.7225V60.547C63.9111 60.4128 64.7738 60.039 65.3106 59.4255C65.8666 58.8121 66.2117 58.074 66.3459 57.2113C66.48 56.3486 66.5471 55.1983 66.5471 53.7605V26.3844L53.6643 47.2903L41.7591 26.3844ZM84.4049 30.0365C84.4049 27.851 84.1844 26.1735 83.7435 25.0041C83.3217 23.8155 82.2673 23.0966 80.5803 22.8473V22.301H94.6997V22.8473C93.0127 23.0007 91.9487 23.6429 91.5077 24.774C91.086 25.8859 90.8751 27.4963 90.8751 29.6051V36.7942L95.9362 32.7396C96.9331 31.9535 98.0163 31.0429 99.1857 30.0077C100.374 28.9725 101.448 27.9181 102.406 26.8445C103.365 25.7709 103.844 24.9082 103.844 24.2564C103.844 23.758 103.71 23.4129 103.442 23.2212C103.192 23.0295 102.79 22.9049 102.234 22.8473V22.301H116.44V22.8473C115.059 22.924 113.746 23.2403 112.5 23.7963C111.254 24.3331 110.161 24.9466 109.222 25.6367C108.302 26.3077 107.036 27.3046 105.426 28.6274L100.997 32.2795C103.01 34.1774 104.784 36.152 106.317 38.2033C107.87 40.2546 109.25 42.3921 110.458 44.616C111.666 46.8206 112.855 49.3608 114.024 52.2364L115.146 54.9395C115.299 55.3038 115.529 55.8693 115.836 56.6362C116.162 57.3838 116.488 58.0261 116.813 58.5628C117.139 59.0996 117.532 59.5406 117.992 59.8856C118.453 60.2116 118.999 60.432 119.632 60.547V61.0647H106.662V60.547C108.043 60.317 108.733 59.5502 108.733 58.2465C108.733 56.847 108.254 54.9779 107.295 52.639C106.336 50.3002 105.378 48.2968 104.419 46.6289C102.368 43.1206 99.7225 39.5932 96.4826 36.0466L90.8751 40.5038V53.3579C90.8751 55.5434 91.086 57.2496 91.5077 58.4766C91.9487 59.6844 93.0127 60.3745 94.6997 60.547V61.0647H80.5803V60.547C81.7689 60.3553 82.6316 59.9432 83.1684 59.3105C83.7243 58.6779 84.0694 57.9494 84.2036 57.125C84.3378 56.2815 84.4049 55.16 84.4049 53.7605V30.0365Z" fill="white"/>
</g>
<rect x="0.411133" y="77.7834" width="13.3546" height="0.785564" fill="white"/>
<g filter="url(#filter1_d_2002_2460)">
<path d="M18.7133 80.9277V74.6832H24.3534V80.9277H23.1826V74.8972L24.0135 75.6652H18.9525L19.8841 74.8972V80.9277H18.7133ZM31.2222 83.3701H30.0513V74.6832H31.2096V76.5968H30.9452C31.0123 76.1856 31.1676 75.8205 31.411 75.5015C31.6628 75.1826 31.9733 74.935 32.3426 74.7588C32.7203 74.5741 33.1316 74.4818 33.5764 74.4818C34.1807 74.4818 34.7179 74.6287 35.1879 74.9224C35.6579 75.2078 36.0272 75.6023 36.2958 76.1058C36.5644 76.601 36.6986 77.1676 36.6986 77.8054C36.6986 78.4517 36.5602 79.0266 36.2832 79.5302C36.0146 80.0254 35.6369 80.4157 35.1501 80.7011C34.6717 80.9864 34.1262 81.1291 33.5135 81.1291C32.9511 81.1291 32.4643 81.0158 32.0531 80.7892C31.6418 80.5542 31.3313 80.2394 31.1214 79.845C30.9116 79.4421 30.8277 78.9931 30.8697 78.4979L31.1089 78.2587C31.1424 78.6196 31.2599 78.9427 31.4614 79.2281C31.6712 79.5134 31.9356 79.7358 32.2545 79.8953C32.5818 80.0464 32.9343 80.1219 33.312 80.1219C33.7485 80.1219 34.1262 80.0254 34.4451 79.8324C34.764 79.6309 35.0158 79.354 35.2005 79.0015C35.3851 78.6489 35.4775 78.2503 35.4775 77.8054C35.4775 77.3606 35.3893 76.9661 35.2131 76.622C35.0368 76.2695 34.7934 75.9925 34.4829 75.7911C34.1723 75.5897 33.8072 75.489 33.3876 75.489C32.9679 75.489 32.5944 75.5939 32.2671 75.8037C31.9482 76.0051 31.6922 76.2905 31.4991 76.6598C31.3145 77.0291 31.2222 77.4571 31.2222 77.9439V83.3701ZM47.191 79.0896L47.9212 79.845C47.5939 80.2478 47.191 80.5626 46.7126 80.7892C46.2426 81.0158 45.7096 81.1291 45.1137 81.1291C44.4339 81.1291 43.8296 80.9864 43.3008 80.7011C42.772 80.4157 42.3566 80.0254 42.0544 79.5302C41.7607 79.0266 41.6138 78.4517 41.6138 77.8054C41.6138 77.1592 41.7565 76.5884 42.0419 76.0933C42.3272 75.5897 42.7217 75.1952 43.2253 74.9098C43.7289 74.6245 44.2954 74.4818 44.9249 74.4818C45.5376 74.4818 46.0789 74.6245 46.5489 74.9098C47.0273 75.1868 47.4008 75.5729 47.6694 76.0681C47.9464 76.5549 48.0849 77.1214 48.0849 77.7677V77.8432H46.9014V77.7299C46.9014 77.2767 46.8175 76.8822 46.6496 76.5465C46.4818 76.2024 46.2468 75.938 45.9446 75.7533C45.6509 75.5603 45.311 75.4638 44.9249 75.4638C44.5136 75.4638 44.1485 75.5603 43.8296 75.7533C43.5106 75.9464 43.263 76.2192 43.0868 76.5717C42.9105 76.9158 42.8224 77.3228 42.8224 77.7929C42.8224 78.2629 42.9189 78.6783 43.112 79.0392C43.3134 79.3917 43.5904 79.6645 43.9429 79.8575C44.2954 80.0506 44.6983 80.1471 45.1515 80.1471C45.9824 80.1471 46.6622 79.7946 47.191 79.0896ZM48.0849 78.1957H42.4825V77.327H47.8834L48.0849 77.7677V78.1957ZM53.379 80.9277V74.6832H54.6757L57.1307 79.291H56.9167L59.3591 74.6832H60.6936V80.9277H59.5983V75.0861L60.1396 75.2372L57.4329 80.336H56.5516L53.8574 75.2372L54.4491 75.0987V80.9277H53.379ZM66.4014 80.9277V74.6832H67.547V79.3917L67.4589 79.3666L71.198 74.6832H72.2178V80.9277H71.0721V76.2192L71.1728 76.2569L67.4211 80.9277H66.4014ZM82.519 74.6832H83.715L80.6054 81.9222C80.4124 82.3839 80.1648 82.7406 79.8626 82.9924C79.5689 83.2442 79.145 83.3701 78.5911 83.3701H77.9112V82.3881H78.5659C78.8261 82.3881 79.0401 82.3209 79.208 82.1866C79.3842 82.0607 79.5269 81.8719 79.636 81.6201L79.9004 80.9528L77.2062 74.6832H78.4526L80.7061 80.2856H80.2529L82.519 74.6832ZM88.684 80.9277V74.6832H89.9807L92.4357 79.291H92.2217L94.6641 74.6832H95.9986V80.9277H94.9033V75.0861L95.4446 75.2372L92.7379 80.336H91.8566L89.1624 75.2372L89.7541 75.0987V80.9277H88.684Z" fill="white"/>
</g>
<rect x="100.963" y="77.7834" width="13.3546" height="0.785564" fill="white"/>
<path d="M55.775 16.8229H47.4307L63.34 0.170807L59.5498 12.4311H67.2981L53.1922 27.9853L55.775 16.8229Z" fill="#E2FC04"/>
</g>
<defs>
<filter id="filter0_d_2002_2460" x="-43.6773" y="-10.4175" width="206.934" height="126.013" filterUnits="userSpaceOnUse" color-interpolation-filters="sRGB">
<feFlood flood-opacity="0" result="BackgroundImageFix"/>
<feColorMatrix in="SourceAlpha" type="matrix" values="0 0 0 0 0 0 0 0 0 0 0 0 0 0 0 0 0 0 127 0" result="hardAlpha"/>
<feOffset dy="10.9061"/>
<feGaussianBlur stdDeviation="21.8123"/>
<feComposite in2="hardAlpha" operator="out"/>
<feColorMatrix type="matrix" values="0 0 0 0 0.0585383 0 0 0 0 0.350962 0 0 0 0 0.0101239 0 0 0 0.1 0"/>
<feBlend mode="normal" in2="BackgroundImageFix" result="effect1_dropShadow_2002_2460"/>
<feBlend mode="normal" in="SourceGraphic" in2="effect1_dropShadow_2002_2460" result="shape"/>
</filter>
<filter id="filter1_d_2002_2460" x="3.1636" y="62.8195" width="108.385" height="39.9878" filterUnits="userSpaceOnUse" color-interpolation-filters="sRGB">
<feFlood flood-opacity="0" result="BackgroundImageFix"/>
<feColorMatrix in="SourceAlpha" type="matrix" values="0 0 0 0 0 0 0 0 0 0 0 0 0 0 0 0 0 0 127 0" result="hardAlpha"/>
<feOffset dy="3.88744"/>
<feGaussianBlur stdDeviation="7.77489"/>
<feComposite in2="hardAlpha" operator="out"/>
<feColorMatrix type="matrix" values="0 0 0 0 0.0585383 0 0 0 0 0.350962 0 0 0 0 0.0101239 0 0 0 0.1 0"/>
<feBlend mode="normal" in2="BackgroundImageFix" result="effect1_dropShadow_2002_2460"/>
<feBlend mode="normal" in="SourceGraphic" in2="effect1_dropShadow_2002_2460" result="shape"/>
</filter>
<clipPath id="clip0_2002_2460">
<rect width="120" height="84" fill="white"/>
</clipPath>
</defs>
</svg>
